SplineFontDB: 3.0
FontName: TaijituSans
FullName: Taijitu Sans
FamilyName: Taijitu Sans
Weight: Book
Copyright: Copyright (c) 2015, Gulliver
UComments: "2015-3-16: Created with FontForge (http://fontforge.org)"
Version: 001.000
ItalicAngle: 0
UnderlinePosition: -724.992
UnderlineWidth: 417.792
Ascent: 1638
Descent: 410
InvalidEm: 0
LayerCount: 2
Layer: 0 0 "Back" 1
Layer: 1 0 "Fore" 0
XUID: [1021 360 -1747898704 805]
FSType: 0
OS2Version: 0
OS2_WeightWidthSlopeOnly: 0
OS2_UseTypoMetrics: 1
CreationTime: 1426491515
ModificationTime: 1426493228
PfmFamily: 17
TTFWeight: 400
TTFWidth: 5
LineGap: 377
VLineGap: 0
OS2TypoAscent: 0
OS2TypoAOffset: 1
OS2TypoDescent: 0
OS2TypoDOffset: 1
OS2TypoLinegap: 377
OS2WinAscent: 0
OS2WinAOffset: 1
OS2WinDescent: 0
OS2WinDOffset: 1
HheadAscent: 0
HheadAOffset: 1
HheadDescent: 0
HheadDOffset: 1
OS2CapHeight: 0
OS2XHeight: 0
OS2Vendor: 'PfEd'
MarkAttachClasses: 1
DEI: 91125
LangName: 1033
Encoding: UnicodeBmp
UnicodeInterp: none
NameList: AGL For New Fonts
DisplaySize: -48
AntiAlias: 1
FitToEm: 1
WinInfo: 57294 27 10
BeginPrivate: 0
EndPrivate
BeginChars: 65536 24

StartChar: uniE000
Encoding: 57344 57344 0
Width: 1366
VWidth: 0
Flags: HW
LayerCount: 2
Back
Fore
SplineSet
-3 0 m 1
 560 1466 l 1
 769 1466 l 1
 1369 0 l 1
 1148 0 l 1
 977 444 l 1
 364 444 l 1
 203 0 l 1
 -3 0 l 1
420 602 m 1
 917 602 l 1
 764 1008 l 2
 717 1131 683 1233 660 1312 c 1
 641 1218 615 1125 581 1032 c 2
 420 602 l 1
EndSplineSet
EndChar

StartChar: uniE001
Encoding: 57345 57345 1
Width: 2048
VWidth: 0
Flags: H
LayerCount: 2
Back
Fore
SplineSet
1 0 m 1
 706 1466 l 1
 1909 1466 l 1
 1909 1293 l 1
 1172 1293 l 1
 1172 842 l 1
 1857 842 l 1
 1857 670 l 1
 1172 670 l 1
 1172 173 l 1
 1936 173 l 1
 1936 0 l 1
 977 0 l 1
 977 423 l 1
 411 423 l 1
 211 0 l 1
 1 0 l 1
493 595 m 1
 977 595 l 1
 977 1293 l 1
 832 1293 l 1
 493 595 l 1
EndSplineSet
EndChar

StartChar: uniE002
Encoding: 57346 57346 2
Width: 1366
VWidth: 0
Flags: HW
LayerCount: 2
Back
Fore
SplineSet
150 0 m 1
 150 1466 l 1
 700 1466 l 2
 812 1466 901.833333333 1451.16666667 969.5 1421.5 c 0
 1037.16666667 1391.83333333 1090.16666667 1346.16666667 1128.5 1284.5 c 0
 1166.83333333 1222.83333333 1186 1158.33333333 1186 1091 c 0
 1186 1028.33333333 1169 969.333333333 1135 914 c 0
 1101 858.666666667 1049.66666667 814 981 780 c 1
 1069.66666667 754 1137.83333333 709.666666667 1185.5 647 c 0
 1233.16666667 584.333333333 1257 510.333333333 1257 425 c 0
 1257 356.333333333 1242.5 292.5 1213.5 233.5 c 0
 1184.5 174.5 1148.66666667 129 1106 97 c 0
 1063.33333333 65 1009.83333333 40.8333333333 945.5 24.5 c 0
 881.166666667 8.16666666667 802.333333333 0 709 0 c 2
 150 0 l 1
344 850 m 1
 661 850 l 2
 747 850 808.666666667 855.666666667 846 867 c 0
 895.333333333 881.666666667 932.5 906 957.5 940 c 0
 982.5 974 995 1016.66666667 995 1068 c 0
 995 1116.66666667 983.333333333 1159.5 960 1196.5 c 0
 936.666666667 1233.5 903.333333333 1258.83333333 860 1272.5 c 0
 816.666666667 1286.16666667 742.333333333 1293 637 1293 c 2
 344 1293 l 1
 344 850 l 1
344 173 m 1
 709 173 l 2
 771.666666667 173 815.666666667 175.333333333 841 180 c 0
 885.666666667 188 923 201.333333333 953 220 c 0
 983 238.666666667 1007.66666667 265.833333333 1027 301.5 c 0
 1046.33333333 337.166666667 1056 378.333333333 1056 425 c 0
 1056 479.666666667 1042 527.166666667 1014 567.5 c 0
 986 607.833333333 947.166666667 636.166666667 897.5 652.5 c 0
 847.833333333 668.833333333 776.333333333 677 683 677 c 2
 344 677 l 1
 344 173 l 1
EndSplineSet
EndChar

StartChar: uniE003
Encoding: 57347 57347 3
Width: 1344
VWidth: 0
Flags: HW
LayerCount: 2
Back
Fore
SplineSet
167 1466 m 1
 1118 1466 l 1
 1118 1293 l 1
 361 1293 l 1
 361 841 l 1
 711 841 l 2
 840.333333333 841 943.166666667 828.666666667 1019.5 804 c 0
 1095.83333333 779.333333333 1157 732.833333333 1203 664.5 c 0
 1249 596.166666667 1272 516.666666667 1272 426 c 0
 1272 352 1255.5 282.833333333 1222.5 218.5 c 0
 1189.5 154.166666667 1140.33333333 101.666666667 1075 61 c 0
 1009.66666667 20.3333333333 898.333333333 0 741 0 c 2
 167 0 l 1
 167 1466 l 1
361 165 m 1
 749 165 l 2
 853.666666667 165 932.166666667 186.333333333 984.5 229 c 0
 1036.83333333 271.666666667 1063 335.666666667 1063 421 c 0
 1063 481.666666667 1048 532.333333333 1018 573 c 0
 988 613.666666667 946.333333333 640.666666667 893 654 c 0
 839.666666667 667.333333333 748.666666667 674 620 674 c 2
 361 674 l 1
 361 165 l 1
EndSplineSet
EndChar

StartChar: uniE004
Encoding: 57348 57348 4
Width: 1128
VWidth: 0
Flags: HW
LayerCount: 2
Back
Fore
SplineSet
164 1466 m 1
 1080 1466 l 1
 1080 1293 l 1
 358 1293 l 1
 358 0 l 1
 164 0 l 1
 164 1466 l 1
EndSplineSet
EndChar

StartChar: uniE006
Encoding: 57350 57350 5
Width: 1368
VWidth: 0
Flags: HW
LayerCount: 2
Back
Fore
SplineSet
-2 0 m 1
 561 1466 l 1
 770 1466 l 1
 1370 0 l 1
 -2 0 l 1
267 173 m 1
 1082 173 l 1
 765 1008 l 2
 717.666666667 1133.33333333 683 1234.66666667 661 1312 c 1
 643 1221.33333333 616.666666667 1128 582 1032 c 2
 267 173 l 1
EndSplineSet
EndChar

StartChar: uniE00A
Encoding: 57354 57354 6
Width: 1251
VWidth: 0
Flags: HW
LayerCount: 2
Back
Fore
SplineSet
41 0 m 1
 41 180 l 1
 792 1119 l 2
 845.333333333 1185.66666667 896 1243.66666667 944 1293 c 1
 126 1293 l 1
 126 1466 l 1
 1176 1466 l 1
 1176 1293 l 1
 353 276 l 1
 264 173 l 1
 1200 173 l 1
 1200 0 l 1
 41 0 l 1
EndSplineSet
EndChar

StartChar: uniE00C
Encoding: 57356 57356 7
Width: 1479
VWidth: 0
Flags: HW
LayerCount: 2
Back
Fore
SplineSet
164 0 m 1
 164 1466 l 1
 358 1466 l 1
 358 864 l 1
 1120 864 l 1
 1120 1466 l 1
 1314 1466 l 1
 1314 0 l 1
 1120 0 l 1
 1120 691 l 1
 358 691 l 1
 358 0 l 1
 164 0 l 1
EndSplineSet
EndChar

StartChar: uniE00D
Encoding: 57357 57357 8
Width: 1593
VWidth: 0
Flags: HW
LayerCount: 2
Back
Fore
SplineSet
1498 731 m 0
 1498 512.333333333 1436.66666667 333.333333333 1314 194 c 0
 1184.66666667 48 1012.33333333 -25 797 -25 c 0
 659 -25 534.333333333 9.33333333333 423 78 c 0
 307 148.666666667 222.666666667 246 170 370 c 0
 120.666666667 486.666666667 96 601.333333333 96 714 c 0
 96 941.333333333 155 1125.33333333 273 1266 c 0
 399.666666667 1416.66666667 574.666666667 1492 798 1492 c 0
 1015.33333333 1492 1188 1418.33333333 1316 1271 c 0
 1437.33333333 1131.66666667 1498 951.666666667 1498 731 c 0
1294 819 m 1
 1281.33333333 965 1236 1081.66666667 1158 1169 c 0
 1064.66666667 1273 945 1325 799 1325 c 0
 655.666666667 1325 536 1276 440 1178 c 0
 361.333333333 1098 315 978.333333333 301 819 c 1
 1294 819 l 1
1294 647 m 1
 298 647 l 1
 308 509.666666667 352.666666667 394.333333333 432 301 c 0
 522.666666667 194.333333333 644 141 796 141 c 0
 941.333333333 141 1059 189.666666667 1149 287 c 0
 1233 378.333333333 1281.33333333 498.333333333 1294 647 c 1
EndSplineSet
EndChar

StartChar: uniE00E
Encoding: 57358 57358 9
Width: 569
VWidth: 0
Flags: HW
LayerCount: 2
Back
Fore
SplineSet
191 0 m 1
 191 1466 l 1
 385 1466 l 1
 385 0 l 1
 191 0 l 1
EndSplineSet
EndChar

StartChar: uniE00F
Encoding: 57359 57359 10
Width: 1024
VWidth: 0
Flags: HW
LayerCount: 2
Back
Fore
SplineSet
59 416 m 1
 234 440 l 1
 238.666666667 328 259.666666667 251.333333333 297 210 c 0
 334.333333333 168.666666667 386 148 452 148 c 0
 500.666666667 148 542.666666667 159.166666667 578 181.5 c 0
 613.333333333 203.833333333 637.666666667 234.166666667 651 272.5 c 0
 664.333333333 310.833333333 671 372 671 456 c 2
 671 1466 l 1
 865 1466 l 1
 865 467 l 2
 865 344.333333333 850.166666667 249.333333333 820.5 182 c 0
 790.833333333 114.666666667 743.833333333 63.3333333333 679.5 28 c 0
 615.166666667 -7.33333333333 539.666666667 -25 453 -25 c 0
 324.333333333 -25 225.833333333 12 157.5 86 c 0
 89.1666666667 160 56.3333333333 270 59 416 c 1
EndSplineSet
EndChar

StartChar: uniE010
Encoding: 57360 57360 11
Width: 1366
VWidth: 0
Flags: HW
LayerCount: 2
Back
Fore
SplineSet
150 0 m 1
 150 1466 l 1
 344 1466 l 1
 344 739 l 1
 1072 1466 l 1
 1335 1466 l 1
 720 872 l 1
 1362 0 l 1
 1106 0 l 1
 584 742 l 1
 344 508 l 1
 344 0 l 1
 150 0 l 1
EndSplineSet
EndChar

StartChar: uniE011
Encoding: 57361 57361 12
Width: 1368
VWidth: 0
Flags: HW
LayerCount: 2
Back
Fore
SplineSet
784 1466 m 1
 1352 0 l 1
 1141 0 l 1
 760 1064 l 2
 726.666666667 1157.33333333 701 1237.66666667 683 1305 c 1
 661 1224.33333333 635 1144 605 1064 c 2
 209 0 l 1
 11 0 l 1
 584 1466 l 1
 784 1466 l 1
EndSplineSet
EndChar

StartChar: uniE012
Encoding: 57362 57362 13
Width: 1706
VWidth: 0
Flags: HW
LayerCount: 2
Back
Fore
SplineSet
152 0 m 1
 152 1466 l 1
 444 1466 l 1
 791 428 l 2
 823 331.333333333 846.333333333 259 861 211 c 1
 877.666666667 264.333333333 903.666666667 342.666666667 939 446 c 2
 1290 1466 l 1
 1551 1466 l 1
 1551 0 l 1
 1364 0 l 1
 1364 1227 l 1
 938 0 l 1
 763 0 l 1
 339 1248 l 1
 339 0 l 1
 152 0 l 1
EndSplineSet
EndChar

StartChar: uniE007
Encoding: 57351 57351 14
Width: 1479
VWidth: 0
Flags: HW
LayerCount: 2
Back
Fore
SplineSet
158 0 m 1
 158 1466 l 1
 663 1466 l 2
 777 1466 864 1459 924 1445 c 0
 1008 1425.66666667 1079.66666667 1390.66666667 1139 1340 c 0
 1216.33333333 1274.66666667 1274.16666667 1191.16666667 1312.5 1089.5 c 0
 1350.83333333 987.833333333 1370 871.666666667 1370 741 c 0
 1370 629.666666667 1357 531 1331 445 c 0
 1305 359 1271.66666667 287.833333333 1231 231.5 c 0
 1190.33333333 175.166666667 1145.83333333 130.833333333 1097.5 98.5 c 0
 1049.16666667 66.1666666667 990.833333333 41.6666666667 922.5 25 c 0
 854.166666667 8.33333333333 775.666666667 0 687 0 c 2
 158 0 l 1
352 173 m 1
 665 173 l 2
 761.666666667 173 837.5 182 892.5 200 c 0
 947.5 218 991.333333333 243.333333333 1024 276 c 0
 1070 322 1105.83333333 383.833333333 1131.5 461.5 c 0
 1157.16666667 539.166666667 1170 633.333333333 1170 744 c 0
 1170 897.333333333 1144.83333333 1015.16666667 1094.5 1097.5 c 0
 1044.16666667 1179.83333333 983 1235 911 1263 c 0
 859 1283 775.333333333 1293 660 1293 c 2
 352 1293 l 1
 352 173 l 1
EndSplineSet
EndChar

StartChar: uniE008
Encoding: 57352 57352 15
Width: 1366
VWidth: 0
Flags: HW
LayerCount: 2
Back
Fore
SplineSet
162 0 m 1
 162 1466 l 1
 1222 1466 l 1
 1222 1293 l 1
 356 1293 l 1
 356 844 l 1
 1167 844 l 1
 1167 672 l 1
 356 672 l 1
 356 173 l 1
 1256 173 l 1
 1256 0 l 1
 162 0 l 1
EndSplineSet
EndChar

StartChar: uniE009
Encoding: 57353 57353 16
Width: 1479
VWidth: 0
Flags: HW
LayerCount: 2
Back
Fore
SplineSet
857 843 m 1
 857 670 l 1
 312 670 l 1
 319.333333333 505.333333333 365 375.5 449 280.5 c 0
 533 185.5 640.666666667 138 772 138 c 0
 1005.33333333 138 1151.66666667 262 1211 510 c 1
 1398 461 l 1
 1313.33333333 137 1109.33333333 -25 786 -25 c 0
 554.666666667 -25 382.5 49.5 269.5 198.5 c 0
 156.5 347.5 103.666666667 531 111 749 c 1
 111 882.333333333 136.166666667 1004 186.5 1114 c 0
 236.833333333 1224 314 1314.33333333 418 1385 c 0
 522 1455.66666667 646 1491 790 1491 c 0
 942 1491 1069.16666667 1453.33333333 1171.5 1378 c 0
 1273.83333333 1302.66666667 1343 1198 1379 1064 c 1
 1189 1014 l 1
 1133.66666667 1218.66666667 1000.33333333 1321 789 1321 c 0
 646.333333333 1321 534.5 1278 453.5 1192 c 0
 372.5 1106 328 989.666666667 320 843 c 1
 857 843 l 1
EndSplineSet
EndChar

StartChar: uniE013
Encoding: 57363 57363 17
Width: 1479
VWidth: 0
Flags: HW
LayerCount: 2
Back
Fore
SplineSet
156 0 m 1
 156 1466 l 1
 355 1466 l 1
 1125 315 l 1
 1125 1466 l 1
 1311 1466 l 1
 1311 0 l 1
 1112 0 l 1
 342 1152 l 1
 342 0 l 1
 156 0 l 1
EndSplineSet
EndChar

StartChar: uniE014
Encoding: 57364 57364 18
Width: 1798
VWidth: 0
Flags: HW
LayerCount: 2
Back
Fore
SplineSet
1125 1466 m 1
 1757 1466 l 1
 1757 1293 l 1
 1311 1293 l 1
 1311 0 l 1
 1112 0 l 1
 342 1152 l 1
 342 0 l 1
 156 0 l 1
 156 1466 l 1
 355 1466 l 1
 1125 315 l 1
 1125 1466 l 1
EndSplineSet
EndChar

StartChar: uniE015
Encoding: 57365 57365 19
Width: 1593
VWidth: 0
Flags: HW
LayerCount: 2
Back
Fore
SplineSet
99 714 m 0
 99 957.333333333 164.333333333 1147.83333333 295 1285.5 c 0
 425.666666667 1423.16666667 594.333333333 1492 801 1492 c 0
 936.333333333 1492 1058.33333333 1459.66666667 1167 1395 c 0
 1275.66666667 1330.33333333 1358.5 1240.16666667 1415.5 1124.5 c 0
 1472.5 1008.83333333 1501 877.666666667 1501 731 c 0
 1501 582.333333333 1471 449.333333333 1411 332 c 0
 1351 214.666666667 1266 125.833333333 1156 65.5 c 0
 1046 5.16666666667 927.333333333 -25 800 -25 c 0
 662 -25 538.666666667 8.33333333333 430 75 c 0
 321.333333333 141.666666667 239 232.666666667 183 348 c 0
 127 463.333333333 99 585.333333333 99 714 c 0
299 711 m 0
 299 534.333333333 346.5 395.166666667 441.5 293.5 c 0
 536.5 191.833333333 655.666666667 141 799 141 c 0
 945 141 1065.16666667 192.333333333 1159.5 295 c 0
 1253.83333333 397.666666667 1301 543.333333333 1301 732 c 0
 1301 851.333333333 1280.83333333 955.5 1240.5 1044.5 c 0
 1200.16666667 1133.5 1141.16666667 1202.5 1063.5 1251.5 c 0
 985.833333333 1300.5 898.666666667 1325 802 1325 c 0
 664.666666667 1325 546.5 1277.83333333 447.5 1183.5 c 0
 348.5 1089.16666667 299 931.666666667 299 711 c 0
EndSplineSet
EndChar

StartChar: uniE016
Encoding: 57366 57366 20
Width: 1479
VWidth: 0
Flags: HW
LayerCount: 2
Back
Fore
SplineSet
164 0 m 1
 164 1466 l 1
 1314 1466 l 1
 1314 0 l 1
 1120 0 l 1
 1120 1293 l 1
 358 1293 l 1
 358 0 l 1
 164 0 l 1
EndSplineSet
EndChar

StartChar: uniE018
Encoding: 57368 57368 21
Width: 1366
VWidth: 0
Flags: HW
LayerCount: 2
Back
Fore
SplineSet
158 0 m 1
 158 1466 l 1
 711 1466 l 2
 808.333333333 1466 882.666666667 1461.33333333 934 1452 c 0
 1006 1440 1066.33333333 1417.16666667 1115 1383.5 c 0
 1163.66666667 1349.83333333 1202.83333333 1302.66666667 1232.5 1242 c 0
 1262.16666667 1181.33333333 1277 1114.66666667 1277 1042 c 0
 1277 917.333333333 1237.33333333 811.833333333 1158 725.5 c 0
 1078.66666667 639.166666667 935.333333333 596 728 596 c 2
 352 596 l 1
 352 0 l 1
 158 0 l 1
352 769 m 1
 731 769 l 2
 856.333333333 769 945.333333333 792.333333333 998 839 c 0
 1050.66666667 885.666666667 1077 951.333333333 1077 1036 c 0
 1077 1097.33333333 1061.5 1149.83333333 1030.5 1193.5 c 0
 999.5 1237.16666667 958.666666667 1266 908 1280 c 0
 875.333333333 1288.66666667 815 1293 727 1293 c 2
 352 1293 l 1
 352 769 l 1
EndSplineSet
EndChar

StartChar: uniE019
Encoding: 57369 57369 22
Width: 1266
VWidth: 0
Flags: HW
LayerCount: 2
Back
Fore
SplineSet
1145 1466 m 1
 1145 1293 l 1
 358 1293 l 1
 858 761 l 1
 358 173 l 1
 1186 173 l 1
 1186 0 l 1
 148 0 l 1
 148 202 l 1
 627 761 l 1
 148 1271 l 1
 148 1466 l 1
 1145 1466 l 1
EndSplineSet
EndChar

StartChar: uniE01A
Encoding: 57370 57370 23
Width: 1251
VWidth: 0
Flags: HW
LayerCount: 2
Back
Fore
SplineSet
531 0 m 1
 531 1293 l 1
 48 1293 l 1
 48 1466 l 1
 1210 1466 l 1
 1210 1293 l 1
 725 1293 l 1
 725 0 l 1
 531 0 l 1
EndSplineSet
EndChar
